<?xml version="1.0" encoding="utf-8"?>
<svg viewBox="0 0 1000 230" style="enable-background:new 0 0 1000 230;" xmlns="http://www.w3.org/2000/svg">
  <defs>
    <style type="text/css">
	.st0{fill:#FFFFFF;}
</style>
  </defs>
  <rect x="6.285" y="4.432" width="987.357" height="217.644" style="fill: rgb(255, 255, 0);" transform="matrix(1, 0, 0, 1, -3.552713678800501e-15, 0)"/>
  <rect x="14.006" y="13.567" width="971.432" height="203.167" style="fill: rgb(255, 0, 0);" transform="matrix(1, 0, 0, 1, -3.552713678800501e-15, 0)"/>
  <rect x="23.658" y="21.323" width="952.129" height="188.206" style="fill: rgb(255, 255, 0);" transform="matrix(1, 0, 0, 1, -3.552713678800501e-15, 0)"/>
  <rect x="31.861" y="28.045" width="935.239" height="172.765" style="fill: rgb(255, 0, 0);" transform="matrix(1, 0, 0, 1, -3.552713678800501e-15, 0)"/>
  <rect x="41.031" y="36.766" width="916.901" height="155.39" style="fill: rgb(255, 255, 0);" transform="matrix(1, 0, 0, 1, -3.552713678800501e-15, 0)"/>
  <rect x="50.199" y="43.969" width="899.528" height="140.915" style="fill: rgb(255, 0, 0);" transform="matrix(1, 0, 0, 1, -3.552713678800501e-15, 0)"/>
</svg>